<?xml version="1.0" standalone="no"?>
<!DOCTYPE svg PUBLIC "-//W3C//DTD SVG 20010904//EN"
 "http://www.w3.org/TR/2001/REC-SVG-20010904/DTD/svg10.dtd">
<svg version="1.0" xmlns="http://www.w3.org/2000/svg"
 width="134.000000pt" height="134.000000pt" viewBox="0 0 134.000000 134.000000"
 preserveAspectRatio="xMidYMid meet">
<metadata>
Created by potrace 1.14, written by Peter Selinger 2001-2017
</metadata>
<g transform="translate(0.000000,134.000000) scale(0.100000,-0.100000)"
fill="#000000" stroke="none">
<path d="M756 1195 c-9 -13 -16 -34 -16 -45 0 -11 -14 -63 -32 -116 l-32 -95
21 -20 20 -21 41 26 c22 14 43 30 47 36 10 16 82 60 99 60 10 0 12 -7 8 -22
-3 -13 -8 -25 -12 -28 -3 -3 -12 -31 -19 -62 -7 -32 -20 -67 -30 -79 -16 -20
-66 -44 -118 -56 -13 -3 -23 -9 -23 -14 0 -5 -9 -9 -20 -9 -11 0 -20 -4 -20
-10 0 -13 16 -13 56 2 22 8 40 8 55 2 l21 -10 -25 -29 c-13 -17 -27 -40 -31
-52 -4 -12 -27 -46 -51 -75 -24 -29 -42 -54 -40 -56 8 -9 65 24 75 43 6 11 22
25 35 32 23 10 25 9 25 -13 0 -13 4 -24 8 -24 5 0 16 -6 25 -12 15 -12 15 -17
2 -53 -23 -64 -20 -82 15 -90 34 -7 39 -33 15 -75 -8 -14 -14 -33 -15 -43 0
-32 109 -125 131 -111 12 7 11 64 -1 64 -5 0 -10 10 -10 23 0 16 -9 26 -30 34
-33 12 -32 27 1 71 25 32 14 60 -27 68 -40 7 -41 16 -9 73 14 23 25 54 25 66
0 25 -33 55 -62 55 -19 0 -21 26 -6 78 16 55 109 80 176 46 31 -15 32 -16 14
-39 -9 -14 -22 -25 -28 -25 -6 0 -17 -6 -23 -14 -17 -21 23 -25 96 -10 33 7
69 11 79 11 15 -2 19 6 21 36 2 25 -2 37 -11 37 -8 0 -16 7 -19 15 -8 18 -88
55 -121 55 -14 0 -27 4 -31 9 -3 6 -17 6 -35 1 -24 -7 -30 -5 -35 11 -8 23 2
58 21 80 8 9 16 31 19 48 2 18 9 39 15 47 7 7 9 25 6 39 -6 25 -26 31 -85 26
-28 -3 -116 -45 -126 -61 -3 -5 -14 -10 -23 -10 -16 1 -16 1 1 11 9 5 17 18
17 28 0 10 7 24 15 31 8 7 17 27 21 46 3 19 10 37 15 40 18 11 9 42 -13 48
-37 10 -45 7 -62 -19z"/>
<path d="M324 1125 c-14 -31 -30 -58 -35 -61 -5 -3 -19 -26 -30 -52 -12 -26
-43 -84 -70 -130 -27 -45 -49 -87 -49 -92 0 -6 -4 -10 -9 -10 -14 0 -23 -37
-16 -59 11 -35 34 -33 55 7 11 20 24 44 29 52 5 8 15 29 22 45 8 17 20 34 26
38 7 4 13 13 13 18 0 10 67 127 80 139 3 3 18 24 34 48 29 42 29 43 13 77 -9
19 -21 35 -26 35 -5 0 -22 -25 -37 -55z"/>
<path d="M459 1054 c-9 -12 -10 -20 -2 -33 7 -12 8 -33 2 -62 -4 -24 -13 -107
-18 -184 -18 -233 -20 -256 -34 -355 -15 -101 -14 -115 13 -142 38 -36 54 -27
68 37 7 33 15 78 19 100 l6 40 -22 -19 c-11 -11 -23 -17 -26 -15 -16 17 -3
242 24 394 17 98 31 204 31 230 0 20 -5 25 -24 25 -13 0 -29 -7 -37 -16z"/>
<path d="M236 733 c-4 -27 -8 -74 -11 -105 -2 -32 -6 -62 -9 -67 -4 -5 -2 -11
3 -13 6 -2 6 -34 0 -83 -16 -133 -14 -149 16 -184 16 -17 34 -31 41 -31 7 0
17 28 24 73 6 39 15 85 21 101 15 47 11 64 -9 34 -9 -16 -20 -28 -23 -28 -8 0
-20 60 -14 70 11 18 6 251 -5 265 -20 25 -28 17 -34 -32z"/>
</g>
</svg>
